<svg xmlns="http://www.w3.org/2000/svg" xmlns:xlink="http://www.w3.org/1999/xlink" id="Layer_1" x="0" y="0" version="1.1" viewBox="0 0 50 50" xml:space="preserve" style="enable-background:new 0 0 50 50"><style type="text/css">.st0{fill:#ffce35}.st1{fill:#ff642f}.st2{fill:#c4411f}.st3{fill:#fff}.st4{fill:#f2ebd9}.st5{fill:#333134}.st6{fill:#666970}.st7{fill:#27bec4}.st8{fill:#d0d2d3}.st9{fill:#c4c3c4}.st10{opacity:.2;fill:#373538}.st11{fill:#0f0d10}.st12{fill:#e1e1e2}</style><g><rect width="50" height="50" x="0" y="0" class="st0"/><g><circle cx="25" cy="25" r="25" class="st0"/><g><g><rect width="5.4" height=".9" x="32.1" y="27.2"/></g><g><polygon points="37.1 24.1 31.2 24.1 31.2 23.2 36.2 23.2 36.2 18.3 37.1 18.3"/></g><g><polygon points="37.1 37 36.2 37 36.2 32.1 31.2 32.1 31.2 31.2 37.1 31.2"/></g><g><rect width="5.4" height=".9" x="12.5" y="27.2"/></g><g><polygon points="18.8 24.1 12.9 24.1 12.9 18.3 13.8 18.3 13.8 23.2 18.8 23.2"/></g><g><polygon points="13.8 37 12.9 37 12.9 31.2 18.8 31.2 18.8 32.1 13.8 32.1"/></g><g><g><path d="M18.8,19.2c-0.6,2.1-1,4.5-1,7.1c0,7.9,3.2,14.3,7.1,14.3V19.2H18.8z" class="st1"/><path d="M31.2,19.2H25v21.4c3.9,0,7.1-6.4,7.1-14.3C32.1,23.7,31.8,21.3,31.2,19.2z" class="st2"/></g><path d="M25,12c-2.6,0-4.9,2.9-6.2,7.1h12.4C30,14.9,27.6,12,25,12z"/></g><circle cx="27.2" cy="16.5" r=".9" class="st3"/><circle cx="22.8" cy="16.5" r=".9" class="st3"/><g><path d="M26.6,12.9h-0.4c0-2.1,1.7-3.8,3.8-3.8v0.4C28.1,9.6,26.6,11.1,26.6,12.9z"/></g><g><path d="M23.9,12.9h-0.4c0-1.8-1.5-3.3-3.3-3.3V9.1C22.2,9.1,23.9,10.8,23.9,12.9z"/></g></g></g></g><g><rect width="50" height="50" x="0" y="0" class="st4"/><g><circle cx="25" cy="25" r="25" class="st4"/><g><rect width="23.2" height="32.1" x="13.4" y="8" class="st5"/><g><rect width="4.5" height=".4" x="15.2" y="12.2" class="st0"/></g><g><rect width="7.1" height=".4" x="16.1" y="14" class="st6"/></g><g><rect width="6.2" height=".4" x="18.7" y="16.7" class="st6"/></g><g><rect width="11.2" height=".4" x="21.4" y="14.9" class="st3"/></g><g><rect width="4.9" height=".4" x="17.9" y="15.8" class="st7"/></g><g><rect width="8" height=".4" x="17" y="21.2" class="st6"/></g><g><rect width="3.1" height=".4" x="16.1" y="20.3" class="st7"/></g><g><rect width="1.3" height=".4" x="18.7" y="23" class="st7"/></g><g><rect width="8" height=".4" x="20.1" y="20.3" class="st6"/></g><g><rect width="13.8" height=".4" x="21" y="23" class="st6"/></g><g><rect width="4" height=".4" x="17.9" y="22.1" class="st3"/></g><g><rect width="1.8" height=".4" x="22.8" y="22.1" class="st0"/></g><g><rect width="3.6" height=".4" x="25.4" y="22.1" class="st3"/></g><g><rect width="5.8" height=".4" x="29" y="20.3" class="st3"/></g><rect width="23.2" height="1.8" x="13.4" y="8"/><g><rect width="3.6" height=".4" x="24.1" y="14" class="st6"/></g><g><rect width="3.6" height=".4" x="17" y="14.9" class="st0"/></g><g><rect width="2.7" height=".4" x="15.2" y="18.5" class="st0"/></g><g><rect width="4.5" height=".4" x="15.2" y="25.6" class="st0"/></g><g><rect width="7.1" height=".4" x="16.1" y="27.4" class="st6"/></g><g><rect width="6.2" height=".4" x="18.7" y="30.1" class="st6"/></g><g><rect width="11.2" height=".4" x="21.4" y="28.3" class="st3"/></g><g><rect width="4.9" height=".4" x="17.9" y="29.2" class="st7"/></g><g><rect width="8" height=".4" x="17" y="34.6" class="st6"/></g><g><rect width="3.1" height=".4" x="16.1" y="33.7" class="st7"/></g><g><rect width="1.3" height=".4" x="18.7" y="36.4" class="st7"/></g><g><rect width="8" height=".4" x="20.1" y="33.7" class="st6"/></g><g><rect width="13.8" height=".4" x="21" y="36.4" class="st6"/></g><g><rect width="4" height=".4" x="17.9" y="35.5" class="st3"/></g><g><rect width="1.8" height=".4" x="22.8" y="35.5" class="st0"/></g><g><rect width="3.6" height=".4" x="25.4" y="35.5" class="st3"/></g><g><rect width="5.8" height=".4" x="29" y="33.7" class="st3"/></g><g><rect width="3.6" height=".4" x="24.1" y="27.4" class="st6"/></g><g><rect width="3.6" height=".4" x="17" y="28.3" class="st0"/></g><g><rect width="2.7" height=".4" x="15.2" y="31.9" class="st0"/></g></g></g></g><g><rect width="50" height="50" x="0" y="0" class="st7"/><g><circle cx="25" cy="25" r="25" class="st7"/><g><g><path d="M21.9,23.2l-9.3-5.4c-1.2,2.1-1.9,4.5-1.9,7.1h10.7C21.4,24.3,21.6,23.7,21.9,23.2z" class="st8"/><path d="M23.2,21.9l-5.4-9.3c-2.2,1.3-4,3.1-5.2,5.2l9.3,5.4C22.2,22.6,22.7,22.2,23.2,21.9z" class="st9"/><path d="M25,21.4V10.7c-2.6,0-5,0.7-7.1,1.9l5.4,9.3C23.7,21.6,24.3,21.4,25,21.4z" class="st8"/><path d="M28.6,25h10.7c0-7.9-6.4-14.3-14.3-14.3v10.7C27,21.4,28.6,23,28.6,25z" class="st3"/><path d="M28.6,25c0,0.6-0.2,1.3-0.5,1.8l9.3,5.4c1.2-2.1,1.9-4.5,1.9-7.1H28.6z" class="st8"/><path d="M26.8,28.1l5.4,9.3c2.2-1.3,4-3.1,5.2-5.2l-9.3-5.4C27.8,27.3,27.3,27.7,26.8,28.1z" class="st9"/><path d="M25,28.5v10.7c2.6,0,5-0.7,7.1-1.9l-5.4-9.3C26.3,28.4,25.7,28.5,25,28.5z" class="st8"/><path d="M21.4,25H10.7c0,7.9,6.4,14.3,14.3,14.3V28.5C23,28.5,21.4,26.9,21.4,25z" class="st3"/><path d="M25,26.8c-1,0-1.8-0.8-1.8-1.8c0-0.3,0.1-0.6,0.2-0.9l-1.5-0.9c-0.3,0.5-0.5,1.1-0.5,1.8c0,2,1.6,3.6,3.6,3.6 c0.7,0,1.3-0.2,1.8-0.5l-0.9-1.5C25.6,26.7,25.3,26.8,25,26.8z"/><path d="M24.1,23.4l-0.9-1.5c-0.5,0.3-1,0.8-1.3,1.3l1.5,0.9C23.6,23.8,23.8,23.6,24.1,23.4z"/><path d="M25.9,26.5l0.9,1.5c0.5-0.3,1-0.8,1.3-1.3l-1.5-0.9C26.4,26.1,26.2,26.4,25.9,26.5z"/><path d="M25,21.4c-0.7,0-1.3,0.2-1.8,0.5l0.9,1.5c0.3-0.2,0.6-0.2,0.9-0.2c1,0,1.8,0.8,1.8,1.8c0,0.3-0.1,0.6-0.2,0.9l1.5,0.9 c0.3-0.5,0.5-1.1,0.5-1.8C28.6,23,27,21.4,25,21.4z"/></g><path d="M25,11.6c-7.4,0-13.4,6-13.4,13.4c0,7.4,6,13.4,13.4,13.4c7.4,0,13.4-6,13.4-13.4 C38.4,17.6,32.4,11.6,25,11.6z M25,26.8c-1,0-1.8-0.8-1.8-1.8c0-1,0.8-1.8,1.8-1.8s1.8,0.8,1.8,1.8C26.8,26,26,26.8,25,26.8z" class="st10"/></g></g></g><g><rect width="50" height="50" x="0" y="0" class="st1"/><g><circle cx="25" cy="25" r="25" class="st1"/><g><rect width="25.9" height="10.7" x="15.2" y="19.6" class="st11"/><rect width="6.2" height="6.2" x="8.9" y="21.8" class="st12"/><rect width="2.7" height="1.3" x="9.4" y="22.7" class="st9"/><rect width="2.7" height="1.3" x="9.4" y="25.9" class="st9"/><g><circle cx="22.9" cy="25" r="1" class="st9"/><rect width="1.3" height="1.3" x="29.6" y="26.3" class="st9"/><polygon points="33 25.6 33 24.3 34.3 25" class="st9"/><g><rect width="9.4" height=".2" x="23.6" y="24.9" class="st9"/></g><circle cx="29" cy="23" r=".7" class="st9"/><g><polygon points="25 25 24.9 24.9 26.9 22.9 29 22.9 29 23.1 27 23.1" class="st9"/></g><g><polygon points="30.3 27.1 28.9 27.1 26.9 25 27 24.9 29 26.9 30.3 26.9" class="st9"/></g></g></g></g></g></svg>