<svg xmlns="http://www.w3.org/2000/svg" xmlns:xlink="http://www.w3.org/1999/xlink" id="Layer_1" x="0" y="0" version="1.1" viewBox="0 0 50 50" xml:space="preserve" style="enable-background:new 0 0 50 50"><style type="text/css">.st0{fill:#ffce35}.st1{fill:#ff642f}.st2{fill:#c4411f}.st3{fill:#fff}.st4{fill:#f2ebd9}.st5{fill:#333134}.st6{fill:#666970}.st7{fill:#27bec4}</style><g><rect width="50" height="50" x="0" y="0" class="st0"/><g><circle cx="25" cy="25" r="25" class="st0"/><g><g><rect width="5.4" height=".9" x="32.1" y="27.2"/></g><g><polygon points="37.1 24.1 31.2 24.1 31.2 23.2 36.2 23.2 36.2 18.3 37.1 18.3"/></g><g><polygon points="37.1 37 36.2 37 36.2 32.1 31.2 32.1 31.2 31.2 37.1 31.2"/></g><g><rect width="5.4" height=".9" x="12.5" y="27.2"/></g><g><polygon points="18.8 24.1 12.9 24.1 12.9 18.3 13.8 18.3 13.8 23.2 18.8 23.2"/></g><g><polygon points="13.8 37 12.9 37 12.9 31.2 18.8 31.2 18.8 32.1 13.8 32.1"/></g><g><g><path d="M18.8,19.2c-0.6,2.1-1,4.5-1,7.1c0,7.9,3.2,14.3,7.1,14.3V19.2H18.8z" class="st1"/><path d="M31.2,19.2H25v21.4c3.9,0,7.1-6.4,7.1-14.3C32.1,23.7,31.8,21.3,31.2,19.2z" class="st2"/></g><path d="M25,12c-2.6,0-4.9,2.9-6.2,7.1h12.4C30,14.9,27.6,12,25,12z"/></g><circle cx="27.2" cy="16.5" r=".9" class="st3"/><circle cx="22.8" cy="16.5" r=".9" class="st3"/><g><path d="M26.6,12.9h-0.4c0-2.1,1.7-3.8,3.8-3.8v0.4C28.1,9.6,26.6,11.1,26.6,12.9z"/></g><g><path d="M23.9,12.9h-0.4c0-1.8-1.5-3.3-3.3-3.3V9.1C22.2,9.1,23.9,10.8,23.9,12.9z"/></g></g></g></g><g><rect width="50" height="50" x="0" y="0" class="st4"/><g><circle cx="25" cy="25" r="25" class="st4"/><g><rect width="23.2" height="32.1" x="13.4" y="8" class="st5"/><g><rect width="4.5" height=".4" x="15.2" y="12.2" class="st0"/></g><g><rect width="7.1" height=".4" x="16.1" y="14" class="st6"/></g><g><rect width="6.2" height=".4" x="18.7" y="16.7" class="st6"/></g><g><rect width="11.2" height=".4" x="21.4" y="14.9" class="st3"/></g><g><rect width="4.9" height=".4" x="17.9" y="15.8" class="st7"/></g><g><rect width="8" height=".4" x="17" y="21.2" class="st6"/></g><g><rect width="3.1" height=".4" x="16.1" y="20.3" class="st7"/></g><g><rect width="1.3" height=".4" x="18.7" y="23" class="st7"/></g><g><rect width="8" height=".4" x="20.1" y="20.3" class="st6"/></g><g><rect width="13.8" height=".4" x="21" y="23" class="st6"/></g><g><rect width="4" height=".4" x="17.9" y="22.1" class="st3"/></g><g><rect width="1.8" height=".4" x="22.8" y="22.1" class="st0"/></g><g><rect width="3.6" height=".4" x="25.4" y="22.1" class="st3"/></g><g><rect width="5.8" height=".4" x="29" y="20.3" class="st3"/></g><rect width="23.2" height="1.8" x="13.4" y="8"/><g><rect width="3.6" height=".4" x="24.1" y="14" class="st6"/></g><g><rect width="3.6" height=".4" x="17" y="14.9" class="st0"/></g><g><rect width="2.7" height=".4" x="15.2" y="18.5" class="st0"/></g><g><rect width="4.5" height=".4" x="15.2" y="25.6" class="st0"/></g><g><rect width="7.1" height=".4" x="16.1" y="27.4" class="st6"/></g><g><rect width="6.2" height=".4" x="18.7" y="30.1" class="st6"/></g><g><rect width="11.2" height=".4" x="21.4" y="28.3" class="st3"/></g><g><rect width="4.9" height=".4" x="17.9" y="29.2" class="st7"/></g><g><rect width="8" height=".4" x="17" y="34.6" class="st6"/></g><g><rect width="3.1" height=".4" x="16.1" y="33.7" class="st7"/></g><g><rect width="1.3" height=".4" x="18.7" y="36.4" class="st7"/></g><g><rect width="8" height=".4" x="20.1" y="33.7" class="st6"/></g><g><rect width="13.8" height=".4" x="21" y="36.4" class="st6"/></g><g><rect width="4" height=".4" x="17.9" y="35.5" class="st3"/></g><g><rect width="1.8" height=".4" x="22.8" y="35.5" class="st0"/></g><g><rect width="3.6" height=".4" x="25.4" y="35.5" class="st3"/></g><g><rect width="5.8" height=".4" x="29" y="33.7" class="st3"/></g><g><rect width="3.6" height=".4" x="24.1" y="27.4" class="st6"/></g><g><rect width="3.6" height=".4" x="17" y="28.3" class="st0"/></g><g><rect width="2.7" height=".4" x="15.2" y="31.9" class="st0"/></g></g></g></g></svg>