<svg xmlns="http://www.w3.org/2000/svg" xmlns:xlink="http://www.w3.org/1999/xlink" id="Layer_1" x="0" y="0" version="1.1" viewBox="0 0 128 128" xml:space="preserve" style="enable-background:new 0 0 128 128"><style type="text/css">.st0{fill-rule:evenodd;clip-rule:evenodd;fill:#00c7e6}.st1{fill:#5243aa}.st2{fill:#6555c0}.st3{fill:#8777d9}.st4{fill:#fff}.st5{opacity:.15;fill:#7f4cbf;enable-background:new}.st6{fill:#00c7e6}.st7{fill:#403294}</style><g id="Page-1"><g id="project_avatar_alien"><g id="Default"><g><rect id="Rectangle" width="128" height="128" y="0" class="st0"/><path id="Shape" d="M40.3,109.7h-2.1c-1.8,0-3.2-1.4-3.2-3.2V93.9c0-1.8,1.4-3.2,3.2-3.2h2.1c1.8,0,3.2,1.4,3.2,3.2 v12.5C43.5,108.2,42,109.7,40.3,109.7z" class="st1"/><path d="M89,109.7h-2.1c-1.8,0-3.2-1.4-3.2-3.2V93.9c0-1.8,1.4-3.2,3.2-3.2H89c1.8,0,3.2,1.4,3.2,3.2v12.5 C92.2,108.2,90.8,109.7,89,109.7z" class="st1"/><ellipse id="Oval" cx="63.8" cy="74.7" class="st2" rx="43.6" ry="30"/><ellipse cx="64" cy="67.7" class="st3" rx="50.3" ry="30"/><path d="M94.8,48.6c0-0.6,0.1-1.3,0.1-1.9c0-17.2-14-31.2-31.2-31.2c-16.9,0-30.7,13.4-31.2,30.2h0v8.3h0 c0.3,9.7,5.1,16.4,12.4,20.4l37.7,0c7.5-4,12.4-11,12.4-21.2c0-0.6,0-1.3-0.1-1.9V48.6L94.8,48.6z" class="st4"/><path d="M32.5,44.3c0,0.5-0.1,0.9-0.1,1.4h0v8.3h0c0.5,16.7,14.2,24.5,31.2,24.5c17.2,0,31.2-8.1,31.2-25.4 c0-0.6,0-1.3-0.1-1.9v-2.6c0-0.6,0.1-1.3,0.1-1.9c0-0.9,0-1.9-0.1-2.8C86.2,40,75.5,37.6,64,37.6C52,37.6,41.1,40.1,32.5,44.3z" class="st5"/><path d="M63.6,28.3L63.6,28.3c-10.4,0-18.8,8.5-18.8,18.8v6.1v15v6.1c5.2,2.8,11.8,4.2,18.8,4.2s13.6-1.4,18.8-4.2 v-6.1v-15v-6.1C82.4,36.7,74,28.3,63.6,28.3z" class="st6"/><circle cx="63.9" cy="50.7" r="11.1" class="st4"/><circle cx="63.5" cy="50.6" r="4.4" class="st7"/></g></g></g></g></svg>